<?xml version="1.0" ?><!DOCTYPE svg  PUBLIC '-//W3C//DTD SVG 1.1//EN'  'http://www.w3.org/Graphics/SVG/1.1/DTD/svg11.dtd'><svg enable-background="new 0 0 100 100" id="animals" version="1.1" viewBox="0 0 100 100" xml:space="preserve" xmlns="http://www.w3.org/2000/svg" xmlns:xlink="http://www.w3.org/1999/xlink"><g><path clip-rule="evenodd" d="M57.559,17c0.171,0,0.343,0,0.515,0c1.025,0.981,0.483,3.528,0.86,5.157   c2.875,0.679,3.923,3.184,6.361,4.298c0,0.401,0,0.802,0,1.203c-0.649,2.215-2.87,2.861-4.126,4.47c0.4,4.43,1.651,8.242,0,11.862   c-0.96,2.105-3.068,3.686-3.439,6.534c-0.471,3.63,0.194,7.417,0.172,12.034c0.561,0.701,2.052,0.469,2.752,1.032   c-0.174,1.561-1.167,1.45-1.031,3.094c-4.205,1.959-6.095-2.215-7.05-5.157c-0.787,0.817-1.173,2.034-1.891,2.922   c2.087-0.028,4.175,0.486,3.439,2.751c-5.183,1.283-11.278,0.465-17.536,0.172c-0.853,1.293-0.473,3.079,0.343,4.126   c3.26,4.175,12.634,2.124,17.021,2.407c-1.464,2.146-5.061,2.159-7.737,3.094c-1.432,0-2.865,0-4.298,0   c-4.228-0.987-7.7-2.729-8.767-6.876c0-0.86,0-1.719,0-2.579c0.474-1.61,1.701-3.612,1.719-5.502   c0.049-5.1-1.765-10.104-0.344-14.957c1.035-3.534,3.915-8.582,6.877-10.316c1.218-0.714,2.768-0.888,3.955-1.548   c1.697-0.943,3.902-2.933,4.299-4.47c0.292-1.138-0.005-2.201,0.171-3.094c0.615-3.119,2.279-4.928,4.986-6.189   C55.475,19.729,56.32,18.168,57.559,17z" fill-rule="evenodd"/></g></svg>