<svg xmlns="http://www.w3.org/2000/svg" width="50" height="50"><g fill="#fff"><path d="M566.949.575h-27.898c-1.32 0-2.391 1.07-2.391 2.392v44.236c0 1.32 1.07 2.392 2.391 2.392h27.898c1.32 0 2.391-1.069 2.391-2.392v-44.236c0-1.321-1.07-2.392-2.391-2.392zm0 44.636c0 .881-.715 1.594-1.596 1.594h-24.705c-.881 0-1.596-.713-1.596-1.594v-22.324c0-.881.715-1.594 1.596-1.594h24.705c.881 0 1.596.713 1.596 1.594v22.324zm0-27.101c0 .881-.715 1.595-1.596 1.595h-24.705c-.881 0-1.596-.714-1.596-1.595v-13.158c0-.881.715-1.594 1.596-1.594h24.705c.881 0 1.596.713 1.596 1.594v13.158zM541.598 12.528c-.572 0-.949.465-.949 1.036v3.51c0 .572.377 1.036.949 1.036s1.035-.464 1.035-1.036v-3.51c0-.571-.463-1.036-1.035-1.036zM541.598 22.891c-.572 0-.949.464-.949 1.036v7.521c0 .571.377 1.034.949 1.034s1.035-.463 1.035-1.034v-7.521c0-.573-.463-1.036-1.035-1.036z"/></g><linearGradient id="a" gradientUnits="userSpaceOnUse" x1="536.519" y1="24.95" x2="569.199" y2="24.95" gradientTransform="matrix(1 0 0 -1 .14 49.055)"><stop offset="0" stop-color="#000"/><stop offset="1" stop-color="#000"/></linearGradient><path fill="url(#a)" d="M566.949-.405h-27.898c-1.32 0-2.391 1.07-2.391 2.392v44.236c0 1.321 1.07 2.393 2.391 2.393h27.898c1.32 0 2.391-1.07 2.391-2.393v-44.237c0-1.321-1.07-2.391-2.391-2.391zm0 44.635c0 .881-.715 1.594-1.596 1.594h-24.705c-.881 0-1.596-.713-1.596-1.594v-22.324c0-.881.715-1.594 1.596-1.594h24.705c.881 0 1.596.713 1.596 1.594v22.324zm0-27.1c0 .881-.715 1.595-1.596 1.595h-24.705c-.881 0-1.596-.714-1.596-1.595v-13.158c0-.881.715-1.594 1.596-1.594h24.705c.881 0 1.596.713 1.596 1.594v13.158z"/><linearGradient id="b" gradientUnits="userSpaceOnUse" x1="540.508" y1="34.716" x2="542.492" y2="34.716" gradientTransform="matrix(1 0 0 -1 .14 49.055)"><stop offset="0" stop-color="#000"/><stop offset="1" stop-color="#000"/></linearGradient><path fill="url(#b)" d="M541.598 11.548c-.572 0-.949.465-.949 1.036v3.51c0 .572.377 1.036.949 1.036s1.035-.464 1.035-1.036v-3.51c0-.571-.463-1.036-1.035-1.036z"/><linearGradient id="c" gradientUnits="userSpaceOnUse" x1="540.508" y1="22.348" x2="542.492" y2="22.348" gradientTransform="matrix(1 0 0 -1 .14 49.055)"><stop offset="0" stop-color="#000"/><stop offset="1" stop-color="#000"/></linearGradient><path fill="url(#c)" d="M541.598 21.91c-.572 0-.949.465-.949 1.036v7.521c0 .571.377 1.036.949 1.036s1.035-.465 1.035-1.036v-7.521c0-.571-.463-1.036-1.035-1.036z"/><path fill="#fff" d="M46.979 28.009c-1.801-1.47-17.474-10.175-20.647-11.868-.002-.071-.276-1.59-.324-3.488-.024-.028-1.304-.16-2.617-.815-1.05-.523-1.886-1.998-1.041-4.081.858-2.117 3.939-1.923 4.938-.479.928 1.344-.355 1.47.201 2.552.271.525.98.515 1.26.467 1.402-.242.777-2.902.421-3.585-.663-1.264-3.276-2.923-5.862-2.158-3.357.992-3.321 4.478-3.197 5.453.446 3.505 3.478 3.867 3.496 4.047.032.31-.44 2.05-.44 2.05s-20.16 11.267-21.339 12.022c-1.244.795-1.828 2.143-1.828 4.23 0 2.274 1.844 4.498 4.118 4.498h41.764c2.274 0 4.118-2.225 4.118-4.498 0-2.018-1.13-2.805-3.021-4.347zm-4.2 6.162h-35.559c-1.937 0-4.405-.249-4.405-1.874 0-1.491 1.396-2.567 2.456-3.137 1.003-.539 18.168-9.965 18.168-9.965s1.929-.506 2.695.028c2.703 1.21 16.048 8.982 17.58 10.032 1.61 1.104 3.112 1.779 3.112 3.223 0 1.625-2.109 1.693-4.047 1.693z"/><linearGradient id="d" gradientUnits="userSpaceOnUse" y1="19.607" x2="50" y2="19.607"><stop offset="0" stop-color="#000"/><stop offset="1" stop-color="#000"/></linearGradient><path fill="url(#d)" d="M46.979 27.009c-1.801-1.47-17.474-10.175-20.647-11.868-.002-.071-.276-1.59-.324-3.488-.024-.028-1.304-.16-2.617-.815-1.05-.523-1.886-1.998-1.041-4.081.858-2.117 3.939-1.923 4.938-.479.928 1.344-.355 1.47.201 2.552.271.525.98.515 1.26.467 1.402-.242.777-2.902.421-3.585-.663-1.264-3.276-2.923-5.862-2.158-3.357.992-3.321 4.478-3.197 5.453.446 3.505 3.478 3.867 3.496 4.047.032.31-.44 2.05-.44 2.05s-20.16 11.267-21.339 12.022c-1.244.795-1.828 2.143-1.828 4.23 0 2.274 1.844 4.498 4.118 4.498h41.764c2.274 0 4.118-2.225 4.118-4.498 0-2.018-1.13-2.805-3.021-4.347zm-4.2 6.162h-35.559c-1.937 0-4.405-.249-4.405-1.874 0-1.491 1.396-2.567 2.456-3.137 1.003-.539 18.168-9.965 18.168-9.965s1.929-.506 2.695.028c2.703 1.21 16.048 8.982 17.58 10.032 1.61 1.104 3.112 1.779 3.112 3.223 0 1.625-2.109 1.693-4.047 1.693z"/></svg>