<svg xmlns="http://www.w3.org/2000/svg" width="50" height="50"><g fill="#fff"><path d="M566.949.575h-27.898c-1.32 0-2.391 1.07-2.391 2.392v44.236c0 1.321 1.07 2.392 2.391 2.392h27.898c1.32 0 2.391-1.07 2.391-2.392v-44.236c0-1.321-1.07-2.392-2.391-2.392zm0 44.636c0 .881-.715 1.594-1.595 1.594h-24.706c-.881 0-1.595-.713-1.595-1.594v-22.324c0-.881.714-1.594 1.595-1.594h24.706c.88 0 1.595.713 1.595 1.594v22.324zm0-27.101c0 .881-.715 1.595-1.595 1.595h-24.706c-.881 0-1.595-.714-1.595-1.595v-13.158c0-.881.714-1.594 1.595-1.594h24.706c.88 0 1.595.713 1.595 1.594v13.158zM541.598 12.528c-.573 0-.949.465-.949 1.036v3.51c0 .572.376 1.036.949 1.036.572 0 1.035-.464 1.035-1.036v-3.51c0-.571-.463-1.036-1.035-1.036zM541.598 22.891c-.573 0-.949.464-.949 1.036v7.521c0 .571.376 1.035.949 1.035.572 0 1.035-.464 1.035-1.035v-7.521c0-.573-.463-1.036-1.035-1.036z"/></g><linearGradient id="a" gradientUnits="userSpaceOnUse" x1="536.66" y1="24.105" x2="569.34" y2="24.105"><stop offset="0" stop-color="#000"/><stop offset="1" stop-color="#000"/></linearGradient><path fill="url(#a)" d="M566.949-.405h-27.898c-1.32 0-2.391 1.07-2.391 2.392v44.236c0 1.321 1.07 2.392 2.391 2.392h27.898c1.32 0 2.391-1.07 2.391-2.392v-44.237c0-1.321-1.07-2.391-2.391-2.391zm0 44.635c0 .881-.715 1.594-1.595 1.594h-24.706c-.881 0-1.595-.713-1.595-1.594v-22.324c0-.881.714-1.594 1.595-1.594h24.706c.88 0 1.595.713 1.595 1.594v22.324zm0-27.1c0 .881-.715 1.595-1.595 1.595h-24.706c-.881 0-1.595-.714-1.595-1.595v-13.158c0-.881.714-1.594 1.595-1.594h24.706c.88 0 1.595.713 1.595 1.594v13.158z"/><linearGradient id="b" gradientUnits="userSpaceOnUse" x1="540.648" y1="14.339" x2="542.633" y2="14.339"><stop offset="0" stop-color="#000"/><stop offset="1" stop-color="#000"/></linearGradient><path fill="url(#b)" d="M541.598 11.548c-.573 0-.949.465-.949 1.036v3.51c0 .572.376 1.036.949 1.036.572 0 1.035-.464 1.035-1.036v-3.51c0-.571-.463-1.036-1.035-1.036z"/><linearGradient id="c" gradientUnits="userSpaceOnUse" x1="540.648" y1="26.707" x2="542.633" y2="26.707"><stop offset="0" stop-color="#000"/><stop offset="1" stop-color="#000"/></linearGradient><path fill="url(#c)" d="M541.598 21.91c-.573 0-.949.465-.949 1.036v7.521c0 .571.376 1.036.949 1.036.572 0 1.035-.465 1.035-1.036v-7.521c0-.571-.463-1.036-1.035-1.036z"/><g fill="#fff"><path d="M44.324.98h-38.647c-2.566 0-4.646 2.079-4.646 4.645v27.02c0 2.564 2.079 4.596 4.646 4.596h38.647c2.564 0 4.645-2.031 4.645-4.596v-27.02c0-2.565-2.08-4.645-4.645-4.645zm.563 32.181h-39.776v-28.048h39.776v28.048zM30.615 46.111v-7.854l-11.221-.025v7.968l-4.185 1.517s-.936 2.332.451 2.283h18.628s1.289-1.381.645-2.025c-.644-.647-4.318-1.864-4.318-1.864z"/></g><linearGradient id="d" gradientUnits="userSpaceOnUse" x1="1.032" y1="18.13" x2="48.969" y2="18.13"><stop offset="0" stop-color="#000"/><stop offset="1" stop-color="#000"/></linearGradient><path fill="url(#d)" d="M44.324 0h-38.647c-2.566 0-4.645 2.079-4.645 4.645v27.02c0 2.564 2.079 4.596 4.646 4.596h38.647c2.564 0 4.645-2.031 4.645-4.596v-27.02c-.001-2.566-2.081-4.645-4.646-4.645zm.563 32.181h-39.776v-28.048h39.776v28.048z"/><linearGradient id="e" gradientUnits="userSpaceOnUse" x1="14.901" y1="43.135" x2="35.114" y2="43.135"><stop offset="0" stop-color="#000"/><stop offset="1" stop-color="#000"/></linearGradient><path fill="url(#e)" d="M30.615 45.131v-7.854l-11.221-.025v7.968l-4.185 1.517s-.936 2.332.451 2.283h18.628s1.289-1.381.645-2.025c-.644-.647-4.318-1.864-4.318-1.864z"/></svg>