<?xml version="1.0" ?><!DOCTYPE svg  PUBLIC '-//W3C//DTD SVG 1.1//EN'  'http://www.w3.org/Graphics/SVG/1.1/DTD/svg11.dtd'><svg enable-background="new 0 0 100 100" id="animals" version="1.1" viewBox="0 0 100 100" xml:space="preserve" xmlns="http://www.w3.org/2000/svg" xmlns:xlink="http://www.w3.org/1999/xlink"><g><path d="M40.359,23.519c1.503-0.78,1.503-2.644,2.777-3.519c-1.141,2.111-0.038,5.155-1.312,7.21   c-0.304,2.207,0.495,3.956,0.742,5.935l0.38,5.555c0.247,1.826,2.264,1.788,3.519,2.397l6.658,0.932l9.245-0.19   c0.323,0.056,0.742-0.152,0.932,0.19l0.19-0.19l4.622,0.932c0.456,0.704,0.913-0.304,1.294,0.552l0.19-0.19   c2.606,1.351,5.707,2.701,7.21,5.555c0.837,2.169,2.225,4.338,1.674,6.849c0.304,1.046-0.495,2.092-0.742,3.139   c-1.065,2.796-4.946,5.726-2.397,8.713l0.552,1.465l-0.742-0.913l-0.19,0.19c-0.609-1.275-1.617-2.359-0.932-3.71   c-0.361-0.19,0.057-0.514,0.19-0.742c1.199-3.463,4.623-6.468,2.777-10.729c-0.247-0.229-0.247-0.552-0.551-0.742   c-0.342,1.598-0.685,3.177-1.846,4.433c-0.571,0.666-1.864,1.483-1.122,2.225c-0.114,0.514-0.342,1.142-0.913,1.294   c-0.323-0.057-0.742,0.152-0.932-0.19c-1.198,0.894-1.75,2.036-1.483,3.519l0.38,2.416l2.587,4.071   c1.674,1.693-1.446,2.777-1.484,4.432l-2.036,4.452c-1.407,1.236-3.538,1.256-5.364,0.913l-0.381-0.362   c1.161-0.837,1.598-2.225,3.329-1.674c0.248-0.361,0.894-0.571,0.742-1.103l-0.172-0.19l-0.38,0.57l-4.623-0.19   c-0.494,0.171-0.723-0.305-1.103-0.381c0.323-1.313,1.75-0.723,2.397-1.655c0.647,0.228,1.579,0.304,2.226,0   c1.122-1.199,2.074-2.473,2.225-4.071c-0.094-1.902-1.103-3.576-2.415-4.813l-3.139-5.935l-0.191-0.172   c-0.228,0.457-0.703,0.343-1.103,0.362c-0.438-0.99,0.799-1.751,0.361-2.968c-3.101-1.408-7.248-1.446-9.987,0.742l-4.813,1.313   c-0.171-0.076-0.266,0.076-0.381,0.171c-0.437,0.057-1.465-0.152-2.035,0.19l-0.19,9.436c-0.399,1.046,1.712,2.682-0.361,2.777   c-0.457,1.369-0.647,3.082-0.552,4.451c-0.152,0.913-1.084,1.179-1.864,1.294c-0.647,0.456-0.171,1.864-1.103,2.206   c-1.959,0.267-3.615,0.342-5.555,0c-0.019-0.589,0.666-1.046,1.122-1.293c0.647-0.019,1.008-0.742,1.655-0.742   c0.191,0.361,0.533-0.057,0.742-0.171c0-0.21,0.057-0.438-0.19-0.552c0.552-1.141,2.245-1.655,1.864-3.348l-0.571-6.277   l-1.294-7.039c-1.864-3.386-3.329-6.906-4.984-10.368c-0.076-0.305,0.152-0.723-0.19-0.932l0.19-0.171l-0.19-0.19l0.19-0.19   l-0.19-0.19c1.446-3.938-1.275-7.533,0.19-11.471c0.418-2.625,0.304-5.669-2.036-7.21c-1.655-0.133-2.606-1.922-4.261-2.035   c-0.742-0.875-0.095-2.34-0.552-3.329c2.397-0.875,5.27,1.046,7.21-0.932c1.541,0,3.196-0.837,4.622,0   c0.742-1.103,0.894-2.473,2.226-3.329C40.321,21.065,39.922,22.34,40.359,23.519z"/></g></svg>