<svg xmlns="http://www.w3.org/2000/svg" width="50" height="50"><g fill="#fff"><path d="M566.949.575h-27.898c-1.32 0-2.391 1.07-2.391 2.392v44.236c0 1.321 1.07 2.392 2.391 2.392h27.898c1.32 0 2.391-1.07 2.391-2.392v-44.236c0-1.321-1.07-2.392-2.391-2.392zm0 44.636c0 .881-.715 1.594-1.595 1.594h-24.706c-.881 0-1.595-.713-1.595-1.594v-22.324c0-.881.714-1.594 1.595-1.594h24.706c.88 0 1.595.713 1.595 1.594v22.324zm0-27.101c0 .881-.715 1.595-1.595 1.595h-24.706c-.881 0-1.595-.714-1.595-1.595v-13.158c0-.881.714-1.594 1.595-1.594h24.706c.88 0 1.595.713 1.595 1.594v13.158zM541.598 12.528c-.573 0-.949.465-.949 1.036v3.51c0 .572.376 1.036.949 1.036.572 0 1.035-.464 1.035-1.036v-3.51c0-.571-.463-1.036-1.035-1.036zM541.598 22.891c-.573 0-.949.464-.949 1.036v7.521c0 .571.376 1.035.949 1.035.572 0 1.035-.464 1.035-1.035v-7.521c0-.573-.463-1.036-1.035-1.036z"/></g><linearGradient id="a" gradientUnits="userSpaceOnUse" x1="536.66" y1="24.105" x2="569.34" y2="24.105"><stop offset="0" stop-color="#000"/><stop offset="1" stop-color="#000"/></linearGradient><path fill="url(#a)" d="M566.949-.405h-27.898c-1.32 0-2.391 1.07-2.391 2.392v44.236c0 1.321 1.07 2.392 2.391 2.392h27.898c1.32 0 2.391-1.07 2.391-2.392v-44.237c0-1.321-1.07-2.391-2.391-2.391zm0 44.635c0 .881-.715 1.594-1.595 1.594h-24.706c-.881 0-1.595-.713-1.595-1.594v-22.324c0-.881.714-1.594 1.595-1.594h24.706c.88 0 1.595.713 1.595 1.594v22.324zm0-27.1c0 .881-.715 1.595-1.595 1.595h-24.706c-.881 0-1.595-.714-1.595-1.595v-13.158c0-.881.714-1.594 1.595-1.594h24.706c.88 0 1.595.713 1.595 1.594v13.158z"/><linearGradient id="b" gradientUnits="userSpaceOnUse" x1="540.648" y1="14.339" x2="542.633" y2="14.339"><stop offset="0" stop-color="#000"/><stop offset="1" stop-color="#000"/></linearGradient><path fill="url(#b)" d="M541.598 11.548c-.573 0-.949.465-.949 1.036v3.51c0 .572.376 1.036.949 1.036.572 0 1.035-.464 1.035-1.036v-3.51c0-.571-.463-1.036-1.035-1.036z"/><linearGradient id="c" gradientUnits="userSpaceOnUse" x1="540.648" y1="26.707" x2="542.633" y2="26.707"><stop offset="0" stop-color="#000"/><stop offset="1" stop-color="#000"/></linearGradient><path fill="url(#c)" d="M541.598 21.91c-.573 0-.949.465-.949 1.036v7.521c0 .571.376 1.036.949 1.036.572 0 1.035-.465 1.035-1.036v-7.521c0-.571-.463-1.036-1.035-1.036z"/><path fill-rule="evenodd" clip-rule="evenodd" fill="#fff" d="M50 34.698v3.526s-.097 3.115-2.904 3.115h-44.24c-2.937.001-2.856-3.114-2.856-3.114l.043-3.554 4.896.004v-21.866c0-3.116 2.961-3.149 2.961-3.149l34.32.038c2.726 0 2.871 2.98 2.871 2.98v22.02h4.909zm-7.033 3.086h3.115c.431 0 .779.301.779.731s-.349.593-.779.593h-3.115c-.43 0-.778-.163-.778-.593-.001-.43.348-.731.778-.731zm-22.392-.03h10.466c.86 0 1.12.247 1.12.748 0 .502-.309.625-1.169.625h-10.417c-.86 0-1.071-.123-1.071-.625 0-.501.211-.748 1.071-.748zm-12.508-24.933h33.904v20.946h-33.904v-20.946z"/><linearGradient id="d" gradientUnits="userSpaceOnUse" y1="24.5" x2="50" y2="24.5"><stop offset="0" stop-color="#000"/><stop offset="1" stop-color="#000"/></linearGradient><path fill-rule="evenodd" clip-rule="evenodd" fill="url(#d)" d="M50 33.698v3.526s-.097 3.115-2.904 3.115h-44.24c-2.937.001-2.856-3.114-2.856-3.114l.043-3.554 4.896.004v-21.866c0-3.116 2.961-3.149 2.961-3.149l34.32.038c2.726 0 2.871 2.98 2.871 2.98v22.02h4.909zm-7.033 3.086h3.115c.431 0 .779.301.779.731s-.349.593-.779.593h-3.115c-.43 0-.778-.163-.778-.593-.001-.43.348-.731.778-.731zm-22.392-.03h10.466c.86 0 1.12.247 1.12.748 0 .502-.309.625-1.169.625h-10.417c-.86 0-1.071-.123-1.071-.625 0-.501.211-.748 1.071-.748zm-12.508-24.933h33.904v20.946h-33.904v-20.946z"/></svg>