<svg xmlns="http://www.w3.org/2000/svg" width="50" height="50"><g fill="#fff"><path d="M566.949.575h-27.898c-1.32 0-2.391 1.07-2.391 2.392v44.236c0 1.321 1.07 2.392 2.391 2.392h27.898c1.32 0 2.391-1.07 2.391-2.392v-44.236c0-1.321-1.07-2.392-2.391-2.392zm0 44.636c0 .881-.715 1.594-1.595 1.594h-24.706c-.881 0-1.595-.713-1.595-1.594v-22.324c0-.881.714-1.594 1.595-1.594h24.706c.88 0 1.595.713 1.595 1.594v22.324zm0-27.101c0 .881-.715 1.595-1.595 1.595h-24.706c-.881 0-1.595-.714-1.595-1.595v-13.158c0-.881.714-1.594 1.595-1.594h24.706c.88 0 1.595.713 1.595 1.594v13.158zM541.598 12.528c-.573 0-.949.465-.949 1.036v3.51c0 .572.376 1.036.949 1.036.572 0 1.035-.464 1.035-1.036v-3.51c0-.571-.463-1.036-1.035-1.036zM541.598 22.891c-.573 0-.949.464-.949 1.036v7.521c0 .571.376 1.035.949 1.035.572 0 1.035-.464 1.035-1.035v-7.521c0-.573-.463-1.036-1.035-1.036z"/></g><linearGradient id="a" gradientUnits="userSpaceOnUse" x1="536.66" y1="24.105" x2="569.34" y2="24.105"><stop offset="0" stop-color="#000"/><stop offset="1" stop-color="#000"/></linearGradient><path fill="url(#a)" d="M566.949-.405h-27.898c-1.32 0-2.391 1.07-2.391 2.392v44.236c0 1.321 1.07 2.392 2.391 2.392h27.898c1.32 0 2.391-1.07 2.391-2.392v-44.237c0-1.321-1.07-2.391-2.391-2.391zm0 44.635c0 .881-.715 1.594-1.595 1.594h-24.706c-.881 0-1.595-.713-1.595-1.594v-22.324c0-.881.714-1.594 1.595-1.594h24.706c.88 0 1.595.713 1.595 1.594v22.324zm0-27.1c0 .881-.715 1.595-1.595 1.595h-24.706c-.881 0-1.595-.714-1.595-1.595v-13.158c0-.881.714-1.594 1.595-1.594h24.706c.88 0 1.595.713 1.595 1.594v13.158z"/><linearGradient id="b" gradientUnits="userSpaceOnUse" x1="540.648" y1="14.339" x2="542.633" y2="14.339"><stop offset="0" stop-color="#000"/><stop offset="1" stop-color="#000"/></linearGradient><path fill="url(#b)" d="M541.598 11.548c-.573 0-.949.465-.949 1.036v3.51c0 .572.376 1.036.949 1.036.572 0 1.035-.464 1.035-1.036v-3.51c0-.571-.463-1.036-1.035-1.036z"/><linearGradient id="c" gradientUnits="userSpaceOnUse" x1="540.648" y1="26.707" x2="542.633" y2="26.707"><stop offset="0" stop-color="#000"/><stop offset="1" stop-color="#000"/></linearGradient><path fill="url(#c)" d="M541.598 21.91c-.573 0-.949.465-.949 1.036v7.521c0 .571.376 1.036.949 1.036.572 0 1.035-.465 1.035-1.036v-7.521c0-.571-.463-1.036-1.035-1.036z"/><path fill-rule="evenodd" clip-rule="evenodd" fill="#fff" d="M9.235.98h31.529c2.558 0 4.63 2.025 4.63 4.582v39.808c0 2.557-2.072 4.63-4.63 4.63h-31.529c-2.557 0-4.63-2.073-4.63-4.63v-39.808c0-2.556 2.074-4.582 4.63-4.582zm31.2 4.906v37.499l-30.87.049v-37.548h30.87zm-15.435 39.311c.854 0 1.543.691 1.543 1.544 0 .852-.689 1.543-1.543 1.543s-1.543-.691-1.543-1.543.689-1.544 1.543-1.544z"/><linearGradient id="d" gradientUnits="userSpaceOnUse" x1="4.606" y1="24.51" x2="45.395" y2="24.51"><stop offset="0" stop-color="#000"/><stop offset="1" stop-color="#000"/></linearGradient><path fill-rule="evenodd" clip-rule="evenodd" fill="url(#d)" d="M9.235 0h31.529c2.558 0 4.63 2.025 4.63 4.582v39.808c0 2.558-2.072 4.63-4.63 4.63h-31.529c-2.557 0-4.63-2.072-4.63-4.63v-39.808c0-2.557 2.074-4.582 4.63-4.582zm31.2 4.906v37.499l-30.87.048v-37.547h30.87zm-15.435 39.311c.854 0 1.543.691 1.543 1.544 0 .852-.689 1.543-1.543 1.543s-1.543-.691-1.543-1.543c0-.853.689-1.544 1.543-1.544z"/></svg>