<svg xmlns="http://www.w3.org/2000/svg" width="50" height="50"><path fill-rule="evenodd" clip-rule="evenodd" fill="#fff" d="M13.192.98h23.587c3.544 0 3.438 3.492 3.438 3.492v42.194c0 3.386-3.28 3.333-3.28 3.333h-23.921c-3.545 0-3.227-3.475-3.227-3.475l.018-42.051c0-3.545 3.385-3.493 3.385-3.493zm23.701 4.402v34.424h-23.729v-34.424h23.729zm-11.92 37.865c.935 0 1.692.759 1.692 1.693s-.758 1.692-1.692 1.692c-.936 0-1.693-.758-1.693-1.692s.757-1.693 1.693-1.693zm-3.387-40.686h6.771v1.241h-6.771v-1.241zm-2.539-.227c.468 0 .847.38.847.848 0 .467-.379.846-.847.846-.467 0-.846-.379-.846-.846 0-.468.379-.848.846-.848z"/><linearGradient id="a" gradientUnits="userSpaceOnUse" x1="25" y1="48.529" x2="25" y2="-.594"><stop offset="0" stop-color="#000"/><stop offset="1" stop-color="#000"/></linearGradient><path fill-rule="evenodd" clip-rule="evenodd" fill="url(#a)" d="M13.192 0h23.587c3.544 0 3.438 3.492 3.438 3.492v42.194c0 3.386-3.28 3.333-3.28 3.333h-23.921c-3.545 0-3.227-3.475-3.227-3.475l.018-42.052c0-3.545 3.385-3.492 3.385-3.492zm23.701 4.401v34.424h-23.729v-34.424h23.729zm-11.92 37.866c.935 0 1.692.759 1.692 1.693 0 .936-.758 1.692-1.692 1.692-.936 0-1.693-.757-1.693-1.692-.001-.935.757-1.693 1.693-1.693zm-3.387-40.687h6.771v1.241h-6.771v-1.241zm-2.539-.226c.468 0 .847.379.847.847 0 .467-.379.846-.847.846-.467 0-.846-.379-.846-.846 0-.468.379-.847.846-.847z"/></svg>