<svg xmlns="http://www.w3.org/2000/svg" width="50" height="50"><g fill="#fff"><path d="M566.949.575h-27.898c-1.32 0-2.391 1.07-2.391 2.392v44.236c0 1.321 1.07 2.392 2.391 2.392h27.898c1.32 0 2.391-1.07 2.391-2.392v-44.236c0-1.321-1.07-2.392-2.391-2.392zm0 44.636c0 .881-.715 1.594-1.595 1.594h-24.706c-.881 0-1.595-.713-1.595-1.594v-22.324c0-.881.714-1.594 1.595-1.594h24.706c.88 0 1.595.713 1.595 1.594v22.324zm0-27.101c0 .881-.715 1.595-1.595 1.595h-24.706c-.881 0-1.595-.714-1.595-1.595v-13.158c0-.881.714-1.594 1.595-1.594h24.706c.88 0 1.595.713 1.595 1.594v13.158zM541.598 12.528c-.573 0-.949.465-.949 1.036v3.51c0 .572.376 1.036.949 1.036.572 0 1.035-.464 1.035-1.036v-3.51c0-.571-.463-1.036-1.035-1.036zM541.598 22.891c-.573 0-.949.464-.949 1.036v7.521c0 .571.376 1.035.949 1.035.572 0 1.035-.464 1.035-1.035v-7.521c0-.573-.463-1.036-1.035-1.036z"/></g><linearGradient id="a" gradientUnits="userSpaceOnUse" x1="536.66" y1="24.105" x2="569.34" y2="24.105"><stop offset="0" stop-color="#000"/><stop offset="1" stop-color="#000"/></linearGradient><path fill="url(#a)" d="M566.949-.405h-27.898c-1.32 0-2.391 1.07-2.391 2.392v44.236c0 1.321 1.07 2.392 2.391 2.392h27.898c1.32 0 2.391-1.07 2.391-2.392v-44.237c0-1.321-1.07-2.391-2.391-2.391zm0 44.635c0 .881-.715 1.594-1.595 1.594h-24.706c-.881 0-1.595-.713-1.595-1.594v-22.324c0-.881.714-1.594 1.595-1.594h24.706c.88 0 1.595.713 1.595 1.594v22.324zm0-27.1c0 .881-.715 1.595-1.595 1.595h-24.706c-.881 0-1.595-.714-1.595-1.595v-13.158c0-.881.714-1.594 1.595-1.594h24.706c.88 0 1.595.713 1.595 1.594v13.158z"/><linearGradient id="b" gradientUnits="userSpaceOnUse" x1="540.648" y1="14.339" x2="542.633" y2="14.339"><stop offset="0" stop-color="#000"/><stop offset="1" stop-color="#000"/></linearGradient><path fill="url(#b)" d="M541.598 11.548c-.573 0-.949.465-.949 1.036v3.51c0 .572.376 1.036.949 1.036.572 0 1.035-.464 1.035-1.036v-3.51c0-.571-.463-1.036-1.035-1.036z"/><linearGradient id="c" gradientUnits="userSpaceOnUse" x1="540.648" y1="26.707" x2="542.633" y2="26.707"><stop offset="0" stop-color="#000"/><stop offset="1" stop-color="#000"/></linearGradient><path fill="url(#c)" d="M541.598 21.91c-.573 0-.949.465-.949 1.036v7.521c0 .571.376 1.036.949 1.036.572 0 1.035-.465 1.035-1.036v-7.521c0-.571-.463-1.036-1.035-1.036z"/><path fill-rule="evenodd" clip-rule="evenodd" fill="#fff" d="M21.035 8.822c0-.935-.759-1.692-1.693-1.692h-8.262c-.936 0-1.942.758-1.942 1.692l-.015 2.095-3.906-.076c-2.338 0-5.217 2.178-5.217 4.515v24.439c0 2.338 1.919 4.074 4.257 4.074h41.829c2.338 0 3.914-1.736 3.914-4.074v-24.442c0-2.338-1.576-4.512-3.914-4.512h-25.075l.024-2.019zm16.187 5.874h7.769c.935 0 1.693.758 1.693 1.693v2.676c0 .935.088.739-.847.739h-7.769c-.935 0-1.693-.651-1.693-1.586v-2.676c0-.934-.088-.846.847-.846zm-18.279-.131c1.205 0 2.185.937 2.185 2.091 0 1.155-.979 2.277-2.185 2.277-1.207 0-2.184-.978-2.184-2.185.001-1.204.977-2.183 2.184-2.183zm11.288 6.686c5.185 0 9.388 4.203 9.388 9.388s-4.203 9.388-9.388 9.388c-5.186 0-9.389-4.203-9.389-9.388s4.204-9.388 9.389-9.388zm.015 3.366c3.319 0 6.011 2.638 6.011 5.958 0 3.319-2.691 6.011-6.011 6.011s-6.011-2.691-6.011-6.011c0-3.32 2.692-5.958 6.011-5.958zm-24.212-11.662v29.106s-3.32-.933-3.32-2.559v-23.882c0-1.413 1.907-2.665 3.32-2.665z"/><linearGradient id="d" gradientUnits="userSpaceOnUse" y1="24.5" x2="50" y2="24.5"><stop offset="0" stop-color="#000"/><stop offset="1" stop-color="#000"/></linearGradient><path fill-rule="evenodd" clip-rule="evenodd" fill="url(#d)" d="M21.035 7.822c0-.935-.759-1.692-1.693-1.692h-8.262c-.936 0-1.942.758-1.942 1.692l-.015 2.095-3.906-.076c-2.338 0-5.217 2.178-5.217 4.515v24.439c0 2.338 1.919 4.074 4.257 4.074h41.829c2.338 0 3.914-1.736 3.914-4.074v-24.442c0-2.338-1.576-4.512-3.914-4.512h-25.075l.024-2.019zm16.187 5.874h7.769c.935 0 1.693.758 1.693 1.693v2.676c0 .935.088.739-.847.739h-7.769c-.935 0-1.693-.651-1.693-1.586v-2.676c0-.934-.088-.846.847-.846zm-18.279-.131c1.205 0 2.185.937 2.185 2.091 0 1.155-.979 2.277-2.185 2.277-1.207 0-2.184-.978-2.184-2.185.001-1.204.977-2.183 2.184-2.183zm11.288 6.686c5.185 0 9.388 4.203 9.388 9.388s-4.203 9.388-9.388 9.388c-5.186 0-9.389-4.203-9.389-9.388s4.204-9.388 9.389-9.388zm.015 3.366c3.319 0 6.011 2.638 6.011 5.958 0 3.319-2.691 6.011-6.011 6.011s-6.011-2.691-6.011-6.011c0-3.32 2.692-5.958 6.011-5.958zm-24.212-11.662v29.106s-3.32-.933-3.32-2.559v-23.882c0-1.413 1.907-2.665 3.32-2.665z"/></svg>